<?xml version="1.0" encoding="UTF-8"?>
<!DOCTYPE svg PUBLIC "-//W3C//DTD SVG 1.1//EN" "http://www.w3.org/Graphics/SVG/1.1/DTD/svg11.dtd">
<svg xmlns="http://www.w3.org/2000/svg" version="1.1" width="512px" height="512px" style="shape-rendering:geometricPrecision; text-rendering:geometricPrecision; image-rendering:optimizeQuality; fill-rule:evenodd; clip-rule:evenodd" xmlns:xlink="http://www.w3.org/1999/xlink">
<g><path style="opacity:0.99" fill="#000000" d="M 511.5,117.5 C 511.5,178.5 511.5,239.5 511.5,300.5C 509.628,302.604 507.295,303.937 504.5,304.5C 501.36,303.871 498.86,302.204 497,299.5C 496.5,258.168 496.333,216.835 496.5,175.5C 426.833,175.5 357.167,175.5 287.5,175.5C 272.5,175.5 257.5,175.5 242.5,175.5C 166.5,175.5 90.5,175.5 14.5,175.5C 14.5,190.167 14.5,204.833 14.5,219.5C 25.505,219.333 36.505,219.5 47.5,220C 48.6667,221.167 49.8333,222.333 51,223.5C 51.5,279.499 51.6667,335.499 51.5,391.5C 51.5,402.833 51.5,414.167 51.5,425.5C 199.833,425.5 348.167,425.5 496.5,425.5C 496.5,414.167 496.5,402.833 496.5,391.5C 496.333,369.831 496.5,348.164 497,326.5C 498.913,323.72 501.413,322.053 504.5,321.5C 507.276,322.089 509.61,323.422 511.5,325.5C 511.5,362.5 511.5,399.5 511.5,436.5C 510.36,437.801 509.027,438.968 507.5,440C 339.5,440.667 171.5,440.667 3.5,440C 1.97331,438.968 0.639972,437.801 -0.5,436.5C -0.5,322.833 -0.5,209.167 -0.5,95.5C 9.62459,87.8813 19.6246,80.0479 29.5,72C 41.1667,71.3333 52.8333,71.3333 64.5,72C 66.6659,73.678 67.9993,75.8447 68.5,78.5C 67.4897,81.3301 65.8231,83.8301 63.5,86C 54.1667,86.3333 44.8333,86.6667 35.5,87C 28.6667,92.5 21.8333,98 15,103.5C 14.5002,114.495 14.3335,125.495 14.5,136.5C 14.5,144.5 14.5,152.5 14.5,160.5C 175.167,160.5 335.833,160.5 496.5,160.5C 496.5,152.5 496.5,144.5 496.5,136.5C 496.666,132.486 496.499,128.486 496,124.5C 490.126,118.957 483.959,113.79 477.5,109C 388.167,108.667 298.833,108.333 209.5,108C 200.167,101 190.833,94 181.5,87C 152.5,86.6667 123.5,86.3333 94.5,86C 92.1299,84.0589 90.7966,81.5589 90.5,78.5C 90.4443,75.4392 91.7776,73.2725 94.5,72C 125.5,71.3333 156.5,71.3333 187.5,72C 196.833,79 206.167,86 215.5,93C 260.832,93.5 306.165,93.6667 351.5,93.5C 351.334,87.4908 351.501,81.4908 352,75.5C 352.465,74.0692 353.299,72.9025 354.5,72C 364.739,70.856 375.072,70.356 385.5,70.5C 395.167,70.6667 404.833,70.8333 414.5,71C 416,71.8333 417.167,73 418,74.5C 418.5,80.8246 418.666,87.1579 418.5,93.5C 420.5,93.5 422.5,93.5 424.5,93.5C 426.276,74.893 436.276,67.7263 454.5,72C 463.291,76.4101 467.291,83.5768 466.5,93.5C 472.952,93.0845 479.285,93.5845 485.5,95C 494.384,102.394 503.051,109.894 511.5,117.5 Z"/></g>
<g><path style="opacity:0.999" fill="#c6905f" d="M 68.5,78.5 C 75.8333,78.5 83.1667,78.5 90.5,78.5C 90.7966,81.5589 92.1299,84.0589 94.5,86C 123.5,86.3333 152.5,86.6667 181.5,87C 190.833,94 200.167,101 209.5,108C 298.833,108.333 388.167,108.667 477.5,109C 483.959,113.79 490.126,118.957 496,124.5C 496.499,128.486 496.666,132.486 496.5,136.5C 482.833,136.5 469.167,136.5 455.5,136.5C 455.666,130.824 455.499,125.157 455,119.5C 454.167,117.333 452.667,115.833 450.5,115C 422.167,114.333 393.833,114.333 365.5,115C 363.072,116.018 361.738,117.852 361.5,120.5C 360.512,125.64 360.179,130.974 360.5,136.5C 336.833,136.5 313.167,136.5 289.5,136.5C 270.833,136.5 252.167,136.5 233.5,136.5C 217.167,136.5 200.833,136.5 184.5,136.5C 184.827,127.318 184.493,118.318 183.5,109.5C 181.862,104.013 178.195,102.18 172.5,104C 171.667,104.833 170.833,105.667 170,106.5C 168.551,116.395 168.051,126.395 168.5,136.5C 165.167,136.5 161.833,136.5 158.5,136.5C 158.827,127.318 158.493,118.318 157.5,109.5C 157.262,106.852 155.928,105.018 153.5,104C 140.833,103.333 128.167,103.333 115.5,104C 113.072,105.018 111.738,106.852 111.5,109.5C 110.507,118.318 110.173,127.318 110.5,136.5C 107.833,136.5 105.167,136.5 102.5,136.5C 102.666,126.828 102.5,117.161 102,107.5C 100.833,106.333 99.6667,105.167 98.5,104C 79.1667,103.333 59.8333,103.333 40.5,104C 39.3333,105.167 38.1667,106.333 37,107.5C 36.5002,117.161 36.3335,126.828 36.5,136.5C 29.1667,136.5 21.8333,136.5 14.5,136.5C 14.3335,125.495 14.5002,114.495 15,103.5C 21.8333,98 28.6667,92.5 35.5,87C 44.8333,86.6667 54.1667,86.3333 63.5,86C 65.8231,83.8301 67.4897,81.3301 68.5,78.5 Z"/></g>
<g><path style="opacity:1" fill="#9e9981" d="M 403.5,86.5 C 391.5,86.5 379.5,86.5 367.5,86.5C 367.5,88.8333 367.5,91.1667 367.5,93.5C 366.527,91.0521 366.194,88.3854 366.5,85.5C 379.011,85.1714 391.345,85.5048 403.5,86.5 Z"/></g>
<g><path style="opacity:1" fill="#f0e9c4" d="M 403.5,86.5 C 403.5,88.8333 403.5,91.1667 403.5,93.5C 391.5,93.5 379.5,93.5 367.5,93.5C 367.5,91.1667 367.5,88.8333 367.5,86.5C 379.5,86.5 391.5,86.5 403.5,86.5 Z"/></g>
<g><path style="opacity:1" fill="#d55d77" d="M 443.5,85.5 C 449.167,85.1667 451.833,87.8333 451.5,93.5C 447.833,93.5 444.167,93.5 440.5,93.5C 440.016,90.2118 441.016,87.5452 443.5,85.5 Z"/></g>
<g><path style="opacity:1" fill="#050403" d="M 102.5,136.5 C 101.728,140.439 99.3948,142.939 95.5,144C 77.8333,144.667 60.1667,144.667 42.5,144C 39.1785,142.516 37.1785,140.016 36.5,136.5C 36.3335,126.828 36.5002,117.161 37,107.5C 38.1667,106.333 39.3333,105.167 40.5,104C 59.8333,103.333 79.1667,103.333 98.5,104C 99.6667,105.167 100.833,106.333 102,107.5C 102.5,117.161 102.666,126.828 102.5,136.5 Z"/></g>
<g><path style="opacity:1" fill="#020101" d="M 157.5,109.5 C 157.953,120.27 157.453,130.937 156,141.5C 155.25,142.126 154.416,142.626 153.5,143C 140.5,143.667 127.5,143.667 114.5,143C 113.667,142.167 112.833,141.333 112,140.5C 111.5,130.172 111.334,119.839 111.5,109.5C 111.738,106.852 113.072,105.018 115.5,104C 128.167,103.333 140.833,103.333 153.5,104C 155.928,105.018 157.262,106.852 157.5,109.5 Z"/></g>
<g><path style="opacity:1" fill="#080503" d="M 183.5,109.5 C 183.953,120.27 183.453,130.937 182,141.5C 175.297,145.392 170.797,143.726 168.5,136.5C 168.051,126.395 168.551,116.395 170,106.5C 170.833,105.667 171.667,104.833 172.5,104C 178.195,102.18 181.862,104.013 183.5,109.5 Z"/></g>
<g><path style="opacity:1" fill="#050301" d="M 455.5,136.5 C 455.825,141.599 455.325,146.599 454,151.5C 452.681,153.487 450.848,154.654 448.5,155C 421.167,155.667 393.833,155.667 366.5,155C 364.714,154.215 363.214,153.049 362,151.5C 361.5,141.172 361.334,130.839 361.5,120.5C 361.738,117.852 363.072,116.018 365.5,115C 393.833,114.333 422.167,114.333 450.5,115C 452.667,115.833 454.167,117.333 455,119.5C 455.499,125.157 455.666,130.824 455.5,136.5 Z"/></g>
<g><path style="opacity:1" fill="#020100" d="M 214.5,117.5 C 246.168,117.333 277.835,117.5 309.5,118C 313.774,121.033 314.607,124.867 312,129.5C 310.829,130.893 309.329,131.727 307.5,132C 276.5,132.667 245.5,132.667 214.5,132C 209.33,127.054 209.33,122.221 214.5,117.5 Z"/></g>
<g><path style="opacity:1" fill="#286b7b" d="M 51.5,118.5 C 63.5,118.5 75.5,118.5 87.5,118.5C 87.5,122.167 87.5,125.833 87.5,129.5C 75.5,129.5 63.5,129.5 51.5,129.5C 51.5,125.833 51.5,122.167 51.5,118.5 Z"/></g>
<g><path style="opacity:1" fill="#bc7e4b" d="M 111.5,109.5 C 111.334,119.839 111.5,130.172 112,140.5C 112.833,141.333 113.667,142.167 114.5,143C 127.5,143.667 140.5,143.667 153.5,143C 154.416,142.626 155.25,142.126 156,141.5C 157.453,130.937 157.953,120.27 157.5,109.5C 158.493,118.318 158.827,127.318 158.5,136.5C 161.833,136.5 165.167,136.5 168.5,136.5C 170.797,143.726 175.297,145.392 182,141.5C 183.453,130.937 183.953,120.27 183.5,109.5C 184.493,118.318 184.827,127.318 184.5,136.5C 200.833,136.5 217.167,136.5 233.5,136.5C 227.844,140.439 227.177,145.106 231.5,150.5C 251.833,151.833 272.167,151.833 292.5,150.5C 297.071,144.586 296.071,139.92 289.5,136.5C 313.167,136.5 336.833,136.5 360.5,136.5C 360.179,130.974 360.512,125.64 361.5,120.5C 361.334,130.839 361.5,141.172 362,151.5C 363.214,153.049 364.714,154.215 366.5,155C 393.833,155.667 421.167,155.667 448.5,155C 450.848,154.654 452.681,153.487 454,151.5C 455.325,146.599 455.825,141.599 455.5,136.5C 469.167,136.5 482.833,136.5 496.5,136.5C 496.5,144.5 496.5,152.5 496.5,160.5C 335.833,160.5 175.167,160.5 14.5,160.5C 14.5,152.5 14.5,144.5 14.5,136.5C 21.8333,136.5 29.1667,136.5 36.5,136.5C 37.1785,140.016 39.1785,142.516 42.5,144C 60.1667,144.667 77.8333,144.667 95.5,144C 99.3948,142.939 101.728,140.439 102.5,136.5C 105.167,136.5 107.833,136.5 110.5,136.5C 110.173,127.318 110.507,118.318 111.5,109.5 Z"/></g>
<g><path style="opacity:1" fill="#736f5d" d="M 126.5,118.5 C 126.5,121.833 126.5,125.167 126.5,128.5C 131.833,128.5 137.167,128.5 142.5,128.5C 142.5,125.167 142.5,121.833 142.5,118.5C 143.482,121.962 143.815,125.629 143.5,129.5C 137.5,129.5 131.5,129.5 125.5,129.5C 125.185,125.629 125.518,121.962 126.5,118.5 Z"/></g>
<g><path style="opacity:1" fill="#f0e9c4" d="M 126.5,118.5 C 131.833,118.5 137.167,118.5 142.5,118.5C 142.5,121.833 142.5,125.167 142.5,128.5C 137.167,128.5 131.833,128.5 126.5,128.5C 126.5,125.167 126.5,121.833 126.5,118.5 Z"/></g>
<g><path style="opacity:1" fill="#080503" d="M 233.5,136.5 C 252.167,136.5 270.833,136.5 289.5,136.5C 296.071,139.92 297.071,144.586 292.5,150.5C 272.167,151.833 251.833,151.833 231.5,150.5C 227.177,145.106 227.844,140.439 233.5,136.5 Z"/></g>
<g><path style="opacity:1" fill="#153942" d="M 376.5,129.5 C 397.66,128.503 418.993,128.169 440.5,128.5C 440.5,132.5 440.5,136.5 440.5,140.5C 418.833,140.5 397.167,140.5 375.5,140.5C 375.185,136.629 375.518,132.962 376.5,129.5 Z"/></g>
<g><path style="opacity:1" fill="#2a7182" d="M 376.5,129.5 C 397.5,129.5 418.5,129.5 439.5,129.5C 439.5,132.833 439.5,136.167 439.5,139.5C 418.5,139.5 397.5,139.5 376.5,139.5C 376.5,136.167 376.5,132.833 376.5,129.5 Z"/></g>
<g><path style="opacity:1" fill="#297081" d="M 242.5,175.5 C 186.081,189.624 152.248,225.291 141,282.5C 136.416,324.753 148.916,360.92 178.5,391C 136.168,391.5 93.8346,391.667 51.5,391.5C 51.6667,335.499 51.5,279.499 51,223.5C 49.8333,222.333 48.6667,221.167 47.5,220C 36.505,219.5 25.505,219.333 14.5,219.5C 14.5,204.833 14.5,190.167 14.5,175.5C 90.5,175.5 166.5,175.5 242.5,175.5 Z"/></g>
<g><path style="opacity:1" fill="#1d5c66" d="M 242.5,175.5 C 257.5,175.5 272.5,175.5 287.5,175.5C 346.821,189.324 381.655,226.324 392,286.5C 395.139,327.434 382.306,362.267 353.5,391C 401.166,391.5 448.832,391.667 496.5,391.5C 496.5,402.833 496.5,414.167 496.5,425.5C 348.167,425.5 199.833,425.5 51.5,425.5C 51.5,414.167 51.5,402.833 51.5,391.5C 93.8346,391.667 136.168,391.5 178.5,391C 148.916,360.92 136.416,324.753 141,282.5C 152.248,225.291 186.081,189.624 242.5,175.5 Z"/></g>
<g><path style="opacity:1" fill="#297081" d="M 287.5,175.5 C 357.167,175.5 426.833,175.5 496.5,175.5C 496.333,216.835 496.5,258.168 497,299.5C 498.86,302.204 501.36,303.871 504.5,304.5C 504.5,310.167 504.5,315.833 504.5,321.5C 501.413,322.053 498.913,323.72 497,326.5C 496.5,348.164 496.333,369.831 496.5,391.5C 448.832,391.667 401.166,391.5 353.5,391C 382.306,362.267 395.139,327.434 392,286.5C 381.655,226.324 346.821,189.324 287.5,175.5 Z"/></g>
<g><path style="opacity:1" fill="#020303" d="M 161.5,292.5 C 164.27,293.31 166.437,294.977 168,297.5C 170.788,348.621 196.622,381.454 245.5,396C 290.092,402.778 324.925,387.612 350,350.5C 373.87,303.216 366.703,261.382 328.5,225C 292.251,198.087 254.251,195.42 214.5,217C 193.584,230.759 179.25,249.592 171.5,273.5C 170.423,274.705 169.09,275.372 167.5,275.5C 161.866,276.532 158.866,274.198 158.5,268.5C 170.675,230.825 195.508,205.491 233,192.5C 280.976,180.403 321.309,192.736 354,229.5C 382.574,268.862 386.241,310.528 365,354.5C 337.554,398.968 297.721,417.801 245.5,411C 197.449,399.949 167.616,370.449 156,322.5C 154.669,314.193 154.002,305.86 154,297.5C 155.793,294.692 158.293,293.026 161.5,292.5 Z"/></g>
<g><path style="opacity:1" fill="#010303" d="M 461.5,187.5 C 468.589,187.116 475.589,187.616 482.5,189C 487.781,193.606 487.447,197.94 481.5,202C 474.833,202.667 468.167,202.667 461.5,202C 456.203,197.215 456.203,192.382 461.5,187.5 Z"/></g>
<g><path style="opacity:1" fill="#eae3bf" d="M 161.5,292.5 C 161.835,287.823 162.335,283.156 163,278.5C 164.31,277.103 165.81,276.103 167.5,275.5C 169.09,275.372 170.423,274.705 171.5,273.5C 179.25,249.592 193.584,230.759 214.5,217C 254.251,195.42 292.251,198.087 328.5,225C 366.703,261.382 373.87,303.216 350,350.5C 324.925,387.612 290.092,402.778 245.5,396C 196.622,381.454 170.788,348.621 168,297.5C 166.437,294.977 164.27,293.31 161.5,292.5 Z"/></g>
<g><path style="opacity:1" fill="#030404" d="M 253.5,213.5 C 299.458,210.712 331.291,230.378 349,272.5C 359.055,309.33 350.222,340.83 322.5,367C 291.925,390.364 259.258,393.697 224.5,377C 186.234,352.576 172.401,318.076 183,273.5C 195.402,240.252 218.902,220.252 253.5,213.5 Z"/></g>
<g><path style="opacity:1" fill="#010404" d="M 462.5,214.5 C 469.257,214.123 475.924,214.623 482.5,216C 487.749,220.698 487.415,225.031 481.5,229C 474.06,229.928 466.726,229.594 459.5,228C 456.127,222.391 457.127,217.891 462.5,214.5 Z"/></g>
<g><path style="opacity:1" fill="#2287a0" d="M 253.5,229.5 C 289.945,225.308 316.445,239.641 333,272.5C 338.178,284.453 339.678,296.787 337.5,309.5C 310.701,283.202 284.035,256.702 257.5,230C 256.207,229.51 254.873,229.343 253.5,229.5 Z"/></g>
<g><path style="opacity:1" fill="#399cac" d="M 253.5,229.5 C 254.873,229.343 256.207,229.51 257.5,230C 284.035,256.702 310.701,283.202 337.5,309.5C 334.06,334.746 321.06,353.08 298.5,364.5C 297.761,364.631 297.094,364.464 296.5,364C 264.965,332.299 233.299,300.799 201.5,269.5C 212.123,247.555 229.456,234.222 253.5,229.5 Z"/></g>
<g><path style="opacity:1" fill="#c89260" d="M 14.5,234.5 C 21.8333,234.5 29.1667,234.5 36.5,234.5C 36.5,298.167 36.5,361.833 36.5,425.5C 29.1667,425.5 21.8333,425.5 14.5,425.5C 14.5,361.833 14.5,298.167 14.5,234.5 Z"/></g>
<g><path style="opacity:1" fill="#2288a1" d="M 201.5,269.5 C 233.299,300.799 264.965,332.299 296.5,364C 297.094,364.464 297.761,364.631 298.5,364.5C 268.207,378.341 240.541,374.175 215.5,352C 197.933,333.659 191.1,311.826 195,286.5C 196.419,280.443 198.586,274.776 201.5,269.5 Z"/></g>
</svg>
