<?xml version="1.0" encoding="UTF-8"?>
<!DOCTYPE svg PUBLIC "-//W3C//DTD SVG 1.1//EN" "http://www.w3.org/Graphics/SVG/1.1/DTD/svg11.dtd">
<svg xmlns="http://www.w3.org/2000/svg" version="1.1" width="512px" height="512px" style="shape-rendering:geometricPrecision; text-rendering:geometricPrecision; image-rendering:optimizeQuality; fill-rule:evenodd; clip-rule:evenodd" xmlns:xlink="http://www.w3.org/1999/xlink">
<g><path style="opacity:1" fill="#5e6174" d="M 233.5,16.5 C 230.813,16.3359 228.146,16.5026 225.5,17C 162.663,53.586 99.6634,89.9193 36.5,126C 31.0739,129.129 25.9072,132.629 21,136.5C 18.4728,140.221 16.4728,144.221 15,148.5C 14.1684,198.002 14.335,247.335 15.5,296.5C 14.9463,304.07 15.6129,311.404 17.5,318.5C 14.3544,316.425 11.0211,314.592 7.5,313C 5.95118,311.786 4.78451,310.286 4,308.5C 3.76713,258.662 3.26713,208.829 2.5,159C -0.270562,142.595 5.39611,130.262 19.5,122C 85.54,83.6468 151.873,45.8135 218.5,8.5C 224.007,10.4173 229.007,13.0839 233.5,16.5 Z"/></g>
<g><path style="opacity:1" fill="#424652" d="M 233.5,16.5 C 235.61,17.4525 236.777,19.1192 237,21.5C 237.5,70.4989 237.667,119.499 237.5,168.5C 163.259,210.739 89.2589,253.406 15.5,296.5C 14.335,247.335 14.1684,198.002 15,148.5C 16.4728,144.221 18.4728,140.221 21,136.5C 25.9072,132.629 31.0739,129.129 36.5,126C 99.6634,89.9193 162.663,53.586 225.5,17C 228.146,16.5026 230.813,16.3359 233.5,16.5 Z"/></g>
<g><path style="opacity:1" fill="#fdfcfd" d="M 227.5,25.5 C 228.499,70.997 228.832,116.664 228.5,162.5C 160.357,202.074 92.024,241.408 23.5,280.5C 22.3334,236.504 22.1667,192.504 23,148.5C 24.4394,145.397 26.2728,142.564 28.5,140C 94.7214,101.606 161.055,63.4392 227.5,25.5 Z"/></g>
<g><path style="opacity:1" fill="#9bd899" d="M 210.5,66.5 C 199.5,85.1667 188.5,103.833 177.5,122.5C 176.503,104.674 176.17,86.6744 176.5,68.5C 187.619,61.5143 198.952,60.8477 210.5,66.5 Z"/></g>
<g><path style="opacity:1" fill="#fbd37d" d="M 356.5,72.5 C 356.721,75.2788 356.388,77.9455 355.5,80.5C 353.929,83.2313 351.595,85.0646 348.5,86C 338.442,89.3271 328.776,88.3271 319.5,83C 318.299,82.0975 317.465,80.9308 317,79.5C 316.5,120.499 316.333,161.499 316.5,202.5C 315.335,159.669 315.169,116.669 316,73.5C 320.812,66.2716 327.646,62.9383 336.5,63.5C 342.541,63.5936 348.208,65.0936 353.5,68C 355.141,69.129 356.141,70.629 356.5,72.5 Z"/></g>
<g><path style="opacity:1" fill="#768cfb" d="M 210.5,66.5 C 217.134,70.6583 221.301,76.6583 223,84.5C 223.499,88.4862 223.666,92.4862 223.5,96.5C 208.139,105.179 192.806,113.845 177.5,122.5C 188.5,103.833 199.5,85.1667 210.5,66.5 Z"/></g>
<g><path style="opacity:1" fill="#e4e7f3" d="M 176.5,68.5 C 176.17,86.6744 176.503,104.674 177.5,122.5C 177.167,123.167 176.833,123.833 176.5,124.5C 167.316,144.209 158.649,164.209 150.5,184.5C 141.732,182.7 135.566,177.7 132,169.5C 126.843,152.523 127.843,135.856 135,119.5C 143.579,98.101 157.412,81.101 176.5,68.5 Z"/></g>
<g><path style="opacity:1" fill="#f8bb4a" d="M 355.5,80.5 C 356.499,120.33 356.832,160.33 356.5,200.5C 355.909,203.614 354.242,206.114 351.5,208C 340.678,212.851 330.011,212.518 319.5,207C 317.859,205.871 316.859,204.371 316.5,202.5C 316.333,161.499 316.5,120.499 317,79.5C 317.465,80.9308 318.299,82.0975 319.5,83C 328.776,88.3271 338.442,89.3271 348.5,86C 351.595,85.0646 353.929,83.2313 355.5,80.5 Z"/></g>
<g><path style="opacity:1" fill="#9bd79b" d="M 406.5,230.5 C 406.667,190.165 406.5,149.832 406,109.5C 400.873,114.988 394.539,117.321 387,116.5C 378.891,117.354 372.224,114.688 367,108.5C 366.5,149.499 366.333,190.499 366.5,231.5C 365.335,189.002 365.169,146.335 366,103.5C 367.031,100.461 368.865,97.9605 371.5,96C 382.352,91.0664 393.019,91.3997 403.5,97C 405.049,98.214 406.215,99.714 407,101.5C 407.831,144.669 407.665,187.669 406.5,230.5 Z"/></g>
<g><path style="opacity:1" fill="#f8bb4d" d="M 223.5,96.5 C 222.754,114.734 217.421,131.4 207.5,146.5C 197.185,139.192 186.851,131.858 176.5,124.5C 176.833,123.833 177.167,123.167 177.5,122.5C 192.806,113.845 208.139,105.179 223.5,96.5 Z"/></g>
<g><path style="opacity:1" fill="#e4e8f4" d="M 110.5,107.5 C 111.5,107.5 112.5,107.5 113.5,107.5C 113.666,115.174 113.5,122.841 113,130.5C 86.8106,146.93 60.1439,162.597 33,177.5C 32.228,177.355 31.5613,177.022 31,176.5C 30.3333,169.5 30.3333,162.5 31,155.5C 31.8333,154.5 32.6667,153.5 33.5,152.5C 59.3938,137.726 85.0605,122.726 110.5,107.5 Z"/></g>
<g><path style="opacity:1" fill="#8c8f96" d="M 227.5,25.5 C 227.56,24.9569 227.893,24.6236 228.5,24.5C 229.831,70.6649 229.831,116.665 228.5,162.5C 228.832,116.664 228.499,70.997 227.5,25.5 Z"/></g>
<g><path style="opacity:1" fill="#75ca75" d="M 406.5,230.5 C 405.797,232.716 404.464,234.549 402.5,236C 390.943,242.176 379.609,241.842 368.5,235C 367.177,234.184 366.511,233.017 366.5,231.5C 366.333,190.499 366.5,149.499 367,108.5C 372.224,114.688 378.891,117.354 387,116.5C 394.539,117.321 400.873,114.988 406,109.5C 406.5,149.832 406.667,190.165 406.5,230.5 Z"/></g>
<g><path style="opacity:1" fill="#778dfc" d="M 456.5,259.5 C 456.667,219.165 456.5,178.832 456,138.5C 450.85,143.877 444.517,146.21 437,145.5C 428.758,146.24 421.924,143.573 416.5,137.5C 416.294,128.195 420.961,123.029 430.5,122C 438.147,120.818 445.48,121.818 452.5,125C 454,126.5 455.5,128 457,129.5C 457.831,173.002 457.665,216.335 456.5,259.5 Z"/></g>
<g><path style="opacity:1" fill="#fa5269" d="M 176.5,124.5 C 186.851,131.858 197.185,139.192 207.5,146.5C 197.987,163.847 183.987,176.014 165.5,183C 160.58,184.25 155.58,184.75 150.5,184.5C 158.649,164.209 167.316,144.209 176.5,124.5 Z"/></g>
<g><path style="opacity:1" fill="#cbd1de" d="M 109.5,137.5 C 110.833,137.5 112.167,137.5 113.5,137.5C 113.981,163.256 113.481,188.923 112,214.5C 88.0848,228.207 64.2515,242.04 40.5,256C 37.6907,257.741 34.6907,258.908 31.5,259.5C 31.3334,234.164 31.5,208.831 32,183.5C 57.8141,168.015 83.6474,152.681 109.5,137.5 Z"/></g>
<g><path style="opacity:1" fill="#596dfa" d="M 416.5,137.5 C 421.924,143.573 428.758,146.24 437,145.5C 444.517,146.21 450.85,143.877 456,138.5C 456.5,178.832 456.667,219.165 456.5,259.5C 455.797,261.716 454.464,263.549 452.5,265C 440.844,271.291 429.511,270.791 418.5,263.5C 417.416,262.335 416.583,261.002 416,259.5C 415.195,218.815 415.362,178.148 416.5,137.5 Z"/></g>
<g><path style="opacity:0.567" fill="#f1cb88" d="M 356.5,72.5 C 357.833,115.167 357.833,157.833 356.5,200.5C 356.832,160.33 356.499,120.33 355.5,80.5C 356.388,77.9455 356.721,75.2788 356.5,72.5 Z"/></g>
<g><path style="opacity:1" fill="#f86482" d="M 508.5,173.5 C 507.686,171.369 507.186,169.036 507,166.5C 499.368,174.115 490.202,176.615 479.5,174C 474.555,172.861 470.221,170.694 466.5,167.5C 465.68,158.135 470.013,152.635 479.5,151C 487.498,149.709 495.164,150.709 502.5,154C 504.333,155.167 505.833,156.667 507,158.5C 508.325,163.401 508.825,168.401 508.5,173.5 Z"/></g>
<g><path style="opacity:1" fill="#f9536a" d="M 508.5,173.5 C 507.679,211.792 507.179,250.125 507,288.5C 502.159,295.239 495.492,298.573 487,298.5C 481.152,298.221 475.652,296.721 470.5,294C 468.622,292.457 467.122,290.624 466,288.5C 465.396,248.163 465.563,207.83 466.5,167.5C 470.221,170.694 474.555,172.861 479.5,174C 490.202,176.615 499.368,174.115 507,166.5C 507.186,169.036 507.686,171.369 508.5,173.5 Z"/></g>
<g><path style="opacity:0.997" fill="#e2e6f2" d="M 237.5,168.5 C 237.666,174.509 237.499,180.509 237,186.5C 235.806,191.888 233.306,196.555 229.5,200.5C 206.602,214.445 183.602,228.111 160.5,241.5C 158.181,241.992 156.181,242.992 154.5,244.5C 137.996,253.584 121.663,262.917 105.5,272.5C 97.6892,277.241 89.6892,281.741 81.5,286C 80.6195,286.708 79.9528,287.542 79.5,288.5C 61.3925,298.39 43.3925,308.556 25.5,319C 22.7395,319.722 20.0728,319.555 17.5,318.5C 15.6129,311.404 14.9463,304.07 15.5,296.5C 89.2589,253.406 163.259,210.739 237.5,168.5 Z"/></g>
<g><path style="opacity:1" fill="#f7748e" d="M 296.5,222.5 C 295.329,223.345 293.995,224.011 292.5,224.5C 290.249,213.235 285.249,203.402 277.5,195C 270.662,192.828 265.495,194.994 262,201.5C 257.678,208.635 254.844,216.302 253.5,224.5C 251.447,224.598 249.78,223.931 248.5,222.5C 250.531,210.27 255.865,199.77 264.5,191C 269.833,187.667 275.167,187.667 280.5,191C 289.141,199.781 294.474,210.281 296.5,222.5 Z"/></g>
<g><path style="opacity:1" fill="#eb4c5c" d="M 303.5,202.5 C 310.959,203.41 313.292,207.41 310.5,214.5C 304.012,219.257 299.679,217.757 297.5,210C 297.916,206.097 299.916,203.597 303.5,202.5 Z"/></g>
<g><path style="opacity:1" fill="#8497fb" d="M 248.5,222.5 C 249.78,223.931 251.447,224.598 253.5,224.5C 259.942,226.555 266.275,228.888 272.5,231.5C 271.216,233.614 269.216,234.614 266.5,234.5C 261.594,232.547 256.594,230.88 251.5,229.5C 250.713,227.896 249.38,227.229 247.5,227.5C 205.692,218.456 199.025,229.789 227.5,261.5C 227.306,263.912 225.973,264.912 223.5,264.5C 217.617,258.406 212.45,251.739 208,244.5C 201.227,227.431 207.06,218.764 225.5,218.5C 233.315,219.092 240.982,220.425 248.5,222.5 Z"/></g>
<g><path style="opacity:1" fill="#76b577" d="M 321.5,264.5 C 319.167,264.833 317.833,266.167 317.5,268.5C 314.793,270.843 312.126,273.177 309.5,275.5C 305.871,276.982 302.538,278.982 299.5,281.5C 297.77,282.026 296.436,283.026 295.5,284.5C 289.661,287.585 283.994,290.918 278.5,294.5C 276.716,294.893 275.05,295.559 273.5,296.5C 266.51,299.712 259.51,302.712 252.5,305.5C 251.209,305.263 250.209,305.596 249.5,306.5C 241.499,308.715 233.332,310.048 225,310.5C 218.416,310.942 212.749,308.942 208,304.5C 206.096,301.077 205.263,297.41 205.5,293.5C 206.146,289.203 207.646,285.203 210,281.5C 214.333,275.67 218.833,270.004 223.5,264.5C 225.973,264.912 227.306,263.912 227.5,261.5C 232.882,256.783 238.549,252.45 244.5,248.5C 246.795,247.864 248.461,246.531 249.5,244.5C 255.339,241.415 261.006,238.082 266.5,234.5C 269.216,234.614 271.216,233.614 272.5,231.5C 279.028,228.769 285.694,226.435 292.5,224.5C 293.995,224.011 295.329,223.345 296.5,222.5C 307.646,218.883 318.979,218.049 330.5,220C 339.735,224.013 342.568,230.846 339,240.5C 334.869,249.771 329.036,257.771 321.5,264.5 Z M 316.5,260.5 C 311.45,256.115 306.116,252.115 300.5,248.5C 300.209,241.462 299.542,234.462 298.5,227.5C 309.388,223.44 320.388,222.94 331.5,226C 333.871,227.743 335.205,230.077 335.5,233C 333.76,240.739 330.26,247.572 325,253.5C 322.564,256.447 319.731,258.78 316.5,260.5 Z M 293.5,229.5 C 294.167,234.5 294.833,239.5 295.5,244.5C 289.965,241.233 284.298,238.233 278.5,235.5C 283.117,232.734 288.117,230.734 293.5,229.5 Z M 273.5,238.5 C 281.423,242.433 289.09,246.766 296.5,251.5C 296.5,257.167 296.5,262.833 296.5,268.5C 288.913,263.29 280.746,259.29 272,256.5C 269.747,256.631 267.581,257.131 265.5,258C 260.102,261.698 254.435,264.864 248.5,267.5C 248.392,262.13 248.725,256.797 249.5,251.5C 256.896,246.134 264.896,241.8 273.5,238.5 Z M 243.5,255.5 C 243.5,260.5 243.5,265.5 243.5,270.5C 242.833,271.167 242.167,271.833 241.5,272.5C 237.895,270.528 234.895,267.861 232.5,264.5C 235.851,261.152 239.518,258.152 243.5,255.5 Z M 301.5,255.5 C 305.5,258.5 309.5,261.5 313.5,264.5C 310.48,267.516 307.146,270.183 303.5,272.5C 302.883,272.389 302.383,272.056 302,271.5C 301.501,266.177 301.334,260.844 301.5,255.5 Z M 228.5,268.5 C 231.167,270.833 233.833,273.167 236.5,275.5C 228.5,279.833 220.5,284.167 212.5,288.5C 216.402,280.699 221.736,274.032 228.5,268.5 Z"/></g>
<g><path style="opacity:1" fill="#f6728c" d="M 247.5,227.5 C 249.38,227.229 250.713,227.896 251.5,229.5C 251.238,234.595 250.572,239.595 249.5,244.5C 248.461,246.531 246.795,247.864 244.5,248.5C 244.928,241.403 245.928,234.403 247.5,227.5 Z"/></g>
<g><path style="opacity:1" fill="#f6738d" d="M 298.5,227.5 C 299.542,234.462 300.209,241.462 300.5,248.5C 298.246,247.876 296.579,246.543 295.5,244.5C 294.833,239.5 294.167,234.5 293.5,229.5C 294.635,227.787 296.302,227.12 298.5,227.5 Z"/></g>
<g><path style="opacity:1" fill="#8496fa" d="M 278.5,235.5 C 284.298,238.233 289.965,241.233 295.5,244.5C 296.579,246.543 298.246,247.876 300.5,248.5C 306.116,252.115 311.45,256.115 316.5,260.5C 317.292,262.756 316.292,264.09 313.5,264.5C 309.5,261.5 305.5,258.5 301.5,255.5C 301.5,254.833 301.167,254.5 300.5,254.5C 299.564,253.026 298.23,252.026 296.5,251.5C 289.09,246.766 281.423,242.433 273.5,238.5C 274.048,235.916 275.715,234.916 278.5,235.5 Z"/></g>
<g><path style="opacity:1" fill="#545768" d="M 160.5,241.5 C 169.356,240.553 177.69,242.053 185.5,246C 188.512,251.675 189.178,257.509 187.5,263.5C 187.662,261.473 187.495,259.473 187,257.5C 179.401,269.766 169.234,279.266 156.5,286C 138.745,296.585 119.579,302.752 99,304.5C 94.6919,304.381 90.5252,303.548 86.5,302C 84,300.833 82.1667,299 81,296.5C 80.5172,297.448 80.3505,298.448 80.5,299.5C 79.5184,296.038 79.185,292.371 79.5,288.5C 79.9528,287.542 80.6195,286.708 81.5,286C 89.6892,281.741 97.6892,277.241 105.5,272.5C 105.334,276.514 105.501,280.514 106,284.5C 108.14,286.487 110.64,287.82 113.5,288.5C 127.206,281.229 140.706,273.563 154,265.5C 154.5,258.508 154.666,251.508 154.5,244.5C 156.181,242.992 158.181,241.992 160.5,241.5 Z"/></g>
<g><path style="opacity:1" fill="#c7cdda" d="M 154.5,244.5 C 154.666,251.508 154.5,258.508 154,265.5C 140.706,273.563 127.206,281.229 113.5,288.5C 110.64,287.82 108.14,286.487 106,284.5C 105.501,280.514 105.334,276.514 105.5,272.5C 121.663,262.917 137.996,253.584 154.5,244.5 Z"/></g>
<g><path style="opacity:1" fill="#f76d88" d="M 249.5,251.5 C 248.725,256.797 248.392,262.13 248.5,267.5C 248.5,270.833 248.5,274.167 248.5,277.5C 246.938,277.267 245.605,276.6 244.5,275.5C 244.784,273.585 244.451,271.919 243.5,270.5C 243.5,265.5 243.5,260.5 243.5,255.5C 244.763,253.193 246.763,251.859 249.5,251.5 Z"/></g>
<g><path style="opacity:1" fill="#f66b87" d="M 296.5,251.5 C 298.23,252.026 299.564,253.026 300.5,254.5C 300.5,261.5 300.5,268.5 300.5,275.5C 299.205,276.488 297.872,277.488 296.5,278.5C 296.5,275.167 296.5,271.833 296.5,268.5C 296.5,262.833 296.5,257.167 296.5,251.5 Z"/></g>
<g><path style="opacity:0.996" fill="#e3e7f3" d="M 296.5,268.5 C 296.5,271.833 296.5,275.167 296.5,278.5C 288.624,283.939 280.291,288.606 271.5,292.5C 265.727,288.774 259.727,285.274 253.5,282C 251.382,280.951 249.716,279.451 248.5,277.5C 248.5,274.167 248.5,270.833 248.5,267.5C 254.435,264.864 260.102,261.698 265.5,258C 267.581,257.131 269.747,256.631 272,256.5C 280.746,259.29 288.913,263.29 296.5,268.5 Z"/></g>
<g><path style="opacity:1" fill="#494d59" d="M 187.5,263.5 C 187.245,266.016 186.411,268.35 185,270.5C 160.83,293.248 132.164,306.582 99,310.5C 93.9705,310.069 89.1372,308.902 84.5,307C 81.9756,305.117 80.6423,302.617 80.5,299.5C 80.3505,298.448 80.5172,297.448 81,296.5C 82.1667,299 84,300.833 86.5,302C 90.5252,303.548 94.6919,304.381 99,304.5C 119.579,302.752 138.745,296.585 156.5,286C 169.234,279.266 179.401,269.766 187,257.5C 187.495,259.473 187.662,261.473 187.5,263.5 Z"/></g>
<g><path style="opacity:1" fill="#f9cb72" d="M 207.5,258.5 C 215.339,259.18 217.839,263.18 215,270.5C 210.755,274.406 206.755,274.073 203,269.5C 201.389,264.301 202.889,260.634 207.5,258.5 Z"/></g>
<g><path style="opacity:0.745" fill="#eea2b6" d="M 300.5,254.5 C 301.167,254.5 301.5,254.833 301.5,255.5C 301.334,260.844 301.501,266.177 302,271.5C 302.383,272.056 302.883,272.389 303.5,272.5C 303.19,274.144 302.19,275.144 300.5,275.5C 300.5,268.5 300.5,261.5 300.5,254.5 Z"/></g>
<g><path style="opacity:1" fill="#7e91fa" d="M 232.5,264.5 C 234.895,267.861 237.895,270.528 241.5,272.5C 242.167,273.833 243.167,274.833 244.5,275.5C 245.605,276.6 246.938,277.267 248.5,277.5C 249.716,279.451 251.382,280.951 253.5,282C 259.727,285.274 265.727,288.774 271.5,292.5C 270.486,293.674 269.153,294.34 267.5,294.5C 261.473,291.155 255.473,287.821 249.5,284.5C 248.564,283.026 247.23,282.026 245.5,281.5C 243.025,278.759 240.025,276.759 236.5,275.5C 233.833,273.167 231.167,270.833 228.5,268.5C 228.833,266.167 230.167,264.833 232.5,264.5 Z"/></g>
<g><path style="opacity:1" fill="#8093fb" d="M 321.5,264.5 C 326.565,270.287 331.398,276.287 336,282.5C 337.868,285.605 339.035,288.938 339.5,292.5C 340.754,302.42 336.42,308.254 326.5,310C 316.221,311.11 306.221,309.943 296.5,306.5C 295.167,306.167 293.833,305.833 292.5,305.5C 285.875,303.072 279.542,300.072 273.5,296.5C 275.05,295.559 276.716,294.893 278.5,294.5C 283.043,297.602 288.043,299.936 293.5,301.5C 294.833,301.833 296.167,302.167 297.5,302.5C 307.932,306.412 318.599,307.245 329.5,305C 332.057,304.315 333.891,302.815 335,300.5C 335.987,296.525 335.487,292.859 333.5,289.5C 333.5,288.833 333.167,288.5 332.5,288.5C 330.945,285.06 329.112,281.727 327,278.5C 323.629,275.297 320.462,271.964 317.5,268.5C 317.833,266.167 319.167,264.833 321.5,264.5 Z"/></g>
<g><path style="opacity:1" fill="#e0e0f1" d="M 243.5,270.5 C 244.451,271.919 244.784,273.585 244.5,275.5C 243.167,274.833 242.167,273.833 241.5,272.5C 242.167,271.833 242.833,271.167 243.5,270.5 Z"/></g>
<g><path style="opacity:0.997" fill="#e3e6f2" d="M 236.5,275.5 C 240.025,276.759 243.025,278.759 245.5,281.5C 246.167,288.5 246.833,295.5 247.5,302.5C 237.026,306.299 226.36,307.133 215.5,305C 208.794,300.563 207.794,295.063 212.5,288.5C 220.5,284.167 228.5,279.833 236.5,275.5 Z"/></g>
<g><path style="opacity:0.996" fill="#e3e6f3" d="M 309.5,275.5 C 316.672,280.589 324.339,284.923 332.5,288.5C 333.167,288.5 333.5,288.833 333.5,289.5C 335.487,292.859 335.987,296.525 335,300.5C 333.891,302.815 332.057,304.315 329.5,305C 318.599,307.245 307.932,306.412 297.5,302.5C 298.729,296.05 299.729,289.55 300.5,283C 300.43,282.235 300.097,281.735 299.5,281.5C 302.538,278.982 305.871,276.982 309.5,275.5 Z"/></g>
<g><path style="opacity:1" fill="#f66482" d="M 245.5,281.5 C 247.23,282.026 248.564,283.026 249.5,284.5C 249.647,290.233 250.314,295.9 251.5,301.5C 250.167,301.833 248.833,302.167 247.5,302.5C 246.833,295.5 246.167,288.5 245.5,281.5 Z"/></g>
<g><path style="opacity:1" fill="#f56e8a" d="M 299.5,281.5 C 300.097,281.735 300.43,282.235 300.5,283C 299.729,289.55 298.729,296.05 297.5,302.5C 296.167,302.167 294.833,301.833 293.5,301.5C 294.686,295.9 295.353,290.233 295.5,284.5C 296.436,283.026 297.77,282.026 299.5,281.5 Z"/></g>
<g><path style="opacity:1" fill="#e1e3f0" d="M 249.5,284.5 C 255.473,287.821 261.473,291.155 267.5,294.5C 262.404,297.205 257.071,299.538 251.5,301.5C 250.314,295.9 249.647,290.233 249.5,284.5 Z"/></g>
<g><path style="opacity:1" fill="#e0e4f1" d="M 295.5,284.5 C 295.353,290.233 294.686,295.9 293.5,301.5C 288.043,299.936 283.043,297.602 278.5,294.5C 283.994,290.918 289.661,287.585 295.5,284.5 Z"/></g>
<g><path style="opacity:0.999" fill="#e3e7f3" d="M 339.5,292.5 C 375.442,314.145 411.776,335.311 448.5,356C 450.607,357.264 451.607,359.097 451.5,361.5C 393.981,395.505 336.314,429.339 278.5,463C 273.56,464.041 268.894,463.374 264.5,461C 209.663,429.081 154.663,397.414 99.5,366C 96.9774,364.64 94.9774,362.807 93.5,360.5C 94.9135,357.44 97.2468,355.274 100.5,354C 135.555,333.81 170.555,313.643 205.5,293.5C 205.263,297.41 206.096,301.077 208,304.5C 212.749,308.942 218.416,310.942 225,310.5C 233.332,310.048 241.499,308.715 249.5,306.5C 250.229,311.351 251.562,316.018 253.5,320.5C 236.319,322.173 222.152,329.506 211,342.5C 208.137,346.38 206.97,350.713 207.5,355.5C 207.603,360.912 209.103,365.912 212,370.5C 221.245,381.042 232.745,387.876 246.5,391C 273.169,397.058 298.502,393.725 322.5,381C 333.603,373.96 338.603,364.126 337.5,351.5C 333.447,338.946 325.114,330.446 312.5,326C 306.083,323.229 299.417,321.396 292.5,320.5C 293.636,315.76 294.97,311.093 296.5,306.5C 306.221,309.943 316.221,311.11 326.5,310C 336.42,308.254 340.754,302.42 339.5,292.5 Z"/></g>
<g><path style="opacity:1" fill="#e1e5f1" d="M 273.5,296.5 C 279.542,300.072 285.875,303.072 292.5,305.5C 291.602,310.535 289.935,315.201 287.5,319.5C 277.218,318.548 266.885,318.214 256.5,318.5C 255.319,314.109 253.986,309.776 252.5,305.5C 259.51,302.712 266.51,299.712 273.5,296.5 Z"/></g>
<g><path style="opacity:1" fill="#f16280" d="M 252.5,305.5 C 253.986,309.776 255.319,314.109 256.5,318.5C 258.792,324.918 262.459,330.418 267.5,335C 272.557,337.351 277.057,336.518 281,332.5C 284.238,328.691 286.404,324.358 287.5,319.5C 289.935,315.201 291.602,310.535 292.5,305.5C 293.833,305.833 295.167,306.167 296.5,306.5C 294.97,311.093 293.636,315.76 292.5,320.5C 291.069,321.78 290.402,323.447 290.5,325.5C 277.948,345.765 265.948,345.432 254.5,324.5C 254.167,323.167 253.833,321.833 253.5,320.5C 251.562,316.018 250.229,311.351 249.5,306.5C 250.209,305.596 251.209,305.263 252.5,305.5 Z"/></g>
<g><path style="opacity:1" fill="#4b4f5d" d="M 253.5,320.5 C 253.833,321.833 254.167,323.167 254.5,324.5C 244.709,327.388 235.043,331.221 225.5,336C 217.512,340.815 211.512,347.315 207.5,355.5C 206.97,350.713 208.137,346.38 211,342.5C 222.152,329.506 236.319,322.173 253.5,320.5 Z"/></g>
<g><path style="opacity:1" fill="#4a4e5c" d="M 292.5,320.5 C 299.417,321.396 306.083,323.229 312.5,326C 325.114,330.446 333.447,338.946 337.5,351.5C 337.649,352.552 337.483,353.552 337,354.5C 330.953,343.127 321.787,335.294 309.5,331C 303.089,328.985 296.756,327.152 290.5,325.5C 290.402,323.447 291.069,321.78 292.5,320.5 Z"/></g>
<g><path style="opacity:1" fill="#595a6b" d="M 256.5,318.5 C 266.885,318.214 277.218,318.548 287.5,319.5C 286.404,324.358 284.238,328.691 281,332.5C 277.057,336.518 272.557,337.351 267.5,335C 262.459,330.418 258.792,324.918 256.5,318.5 Z"/></g>
<g><path style="opacity:1" fill="#5b5e71" d="M 254.5,324.5 C 265.948,345.432 277.948,345.765 290.5,325.5C 296.756,327.152 303.089,328.985 309.5,331C 321.787,335.294 330.953,343.127 337,354.5C 337.483,353.552 337.649,352.552 337.5,351.5C 338.603,364.126 333.603,373.96 322.5,381C 298.502,393.725 273.169,397.058 246.5,391C 232.745,387.876 221.245,381.042 212,370.5C 209.103,365.912 207.603,360.912 207.5,355.5C 211.512,347.315 217.512,340.815 225.5,336C 235.043,331.221 244.709,327.388 254.5,324.5 Z"/></g>
<g><path style="opacity:1" fill="#f86684" d="M 410.5,345.5 C 410.802,348.059 410.468,350.393 409.5,352.5C 404.551,351.959 399.884,352.792 395.5,355C 393.285,357.242 392.952,359.742 394.5,362.5C 390.5,362.5 386.5,362.5 382.5,362.5C 380.84,357.28 382.507,353.113 387.5,350C 394.653,346.049 402.319,344.549 410.5,345.5 Z"/></g>
<g><path style="opacity:1" fill="#cbd0dd" d="M 410.5,345.5 C 418.011,346.339 424.178,349.672 429,355.5C 430.466,360.735 428.966,364.901 424.5,368C 411.823,375.274 399.157,375.274 386.5,368C 384.536,366.549 383.203,364.716 382.5,362.5C 386.5,362.5 390.5,362.5 394.5,362.5C 402.26,367.926 409.76,367.592 417,361.5C 417.667,359.833 417.667,358.167 417,356.5C 414.745,354.501 412.245,353.168 409.5,352.5C 410.468,350.393 410.802,348.059 410.5,345.5 Z"/></g>
<g><path style="opacity:1" fill="#e3e6f2" d="M 409.5,352.5 C 412.245,353.168 414.745,354.501 417,356.5C 417.667,358.167 417.667,359.833 417,361.5C 409.76,367.592 402.26,367.926 394.5,362.5C 392.952,359.742 393.285,357.242 395.5,355C 399.884,352.792 404.551,351.959 409.5,352.5 Z"/></g>
<g><path style="opacity:1" fill="#d4dae8" d="M 93.5,360.5 C 94.9774,362.807 96.9774,364.64 99.5,366C 154.663,397.414 209.663,429.081 264.5,461C 268.894,463.374 273.56,464.041 278.5,463C 336.314,429.339 393.981,395.505 451.5,361.5C 451.666,366.511 451.499,371.511 451,376.5C 395.413,409.712 339.58,442.545 283.5,475C 278.145,478.575 272.478,479.242 266.5,477C 210.758,444.267 154.758,411.934 98.5,380C 96.4299,379.052 94.9299,377.552 94,375.5C 93.5007,370.511 93.3341,365.511 93.5,360.5 Z"/></g>
<g><path style="opacity:1" fill="#fcd57d" d="M 367.5,397.5 C 367.674,395.139 368.007,392.806 368.5,390.5C 375.506,388.362 376.839,384.529 372.5,379C 365.343,375.234 358.676,375.734 352.5,380.5C 348.5,380.5 344.5,380.5 340.5,380.5C 341.203,378.284 342.536,376.451 344.5,375C 347.167,373.667 349.833,372.333 352.5,371C 359.5,370.333 366.5,370.333 373.5,371C 379.508,372.687 384.008,376.187 387,381.5C 387.105,388.095 383.939,392.595 377.5,395C 374.28,396.352 370.947,397.186 367.5,397.5 Z"/></g>
<g><path style="opacity:1" fill="#e4e7f0" d="M 368.5,390.5 C 363.703,390.879 359.036,390.379 354.5,389C 351.474,386.702 350.808,383.869 352.5,380.5C 358.676,375.734 365.343,375.234 372.5,379C 376.839,384.529 375.506,388.362 368.5,390.5 Z"/></g>
<g><path style="opacity:1" fill="#7ccb7a" d="M 340.5,380.5 C 344.5,380.5 348.5,380.5 352.5,380.5C 350.808,383.869 351.474,386.702 354.5,389C 359.036,390.379 363.703,390.879 368.5,390.5C 368.007,392.806 367.674,395.139 367.5,397.5C 360.156,398.232 353.156,397.066 346.5,394C 340.445,391.074 338.445,386.574 340.5,380.5 Z"/></g>
<g><path style="opacity:1" fill="#cad0dd" d="M 344.5,405.5 C 340.5,405.5 336.5,405.5 332.5,405.5C 327.155,401.707 321.155,400.54 314.5,402C 307.069,405.656 306.736,409.656 313.5,414C 317.486,414.499 321.486,414.666 325.5,414.5C 322.713,415.477 319.713,415.81 316.5,415.5C 316.5,417.5 316.5,419.5 316.5,421.5C 308.77,421.551 302.603,418.551 298,412.5C 296.105,406.104 298.272,401.271 304.5,398C 315.45,393.469 326.45,393.469 337.5,398C 340.717,399.715 343.05,402.215 344.5,405.5 Z"/></g>
<g><path style="opacity:1" fill="#e2e6f2" d="M 332.5,405.5 C 333.745,410.952 331.412,413.952 325.5,414.5C 321.486,414.666 317.486,414.499 313.5,414C 306.736,409.656 307.069,405.656 314.5,402C 321.155,400.54 327.155,401.707 332.5,405.5 Z"/></g>
<g><path style="opacity:1" fill="#768cfc" d="M 164.5,466.5 C 164.5,462.833 164.5,459.167 164.5,455.5C 158.155,455.653 151.822,455.986 145.5,456.5C 145.5,460.167 145.5,463.833 145.5,467.5C 146.833,467.5 148.167,467.5 149.5,467.5C 148.59,469.501 149.423,470.835 152,471.5C 152.167,473.833 152.333,476.167 152.5,478.5C 152.471,481.269 151.805,483.603 150.5,485.5C 151.596,481.587 151.762,477.587 151,473.5C 146,476.5 141,479.5 136,482.5C 135.19,486.358 135.357,490.024 136.5,493.5C 135.5,494.833 134.5,494.833 133.5,493.5C 134.808,489.981 134.808,486.315 133.5,482.5C 128.953,480.06 124.287,477.893 119.5,476C 115.507,475.83 111.507,475.996 107.5,476.5C 107.5,480.167 107.5,483.833 107.5,487.5C 108.833,487.5 110.167,487.5 111.5,487.5C 110.432,488.434 109.099,488.768 107.5,488.5C 107.5,489.5 107.5,490.5 107.5,491.5C 106.686,489.369 106.186,487.036 106,484.5C 105.749,486.433 105.249,488.266 104.5,490C 96.5069,490.5 88.5069,490.666 80.5,490.5C 80.5,494.167 80.5,497.833 80.5,501.5C 78.5496,497.129 77.2163,492.462 76.5,487.5C 76.6653,483.818 76.4986,480.152 76,476.5C 73.9316,475.606 71.7649,474.94 69.5,474.5C 63.0565,476.888 56.7232,479.555 50.5,482.5C 50.1667,484.333 49.8333,486.167 49.5,488C 49.5465,490.295 50.2132,492.129 51.5,493.5C 50.1667,494.833 48.8333,494.833 47.5,493.5C 48.6433,490.024 48.8099,486.358 48,482.5C 43,479.5 38,476.5 33,473.5C 32.5014,477.152 32.3347,480.818 32.5,484.5C 31.1889,480.317 31.1889,475.984 32.5,471.5C 34.7962,470.632 35.4629,469.298 34.5,467.5C 37.1569,467.838 39.4902,467.171 41.5,465.5C 42.4841,462.572 42.8174,459.572 42.5,456.5C 34.8304,456.222 27.1637,455.889 19.5,455.5C 19.5,459.167 19.5,462.833 19.5,466.5C 18.507,458.016 18.1736,449.349 18.5,440.5C 22.7853,439.705 27.1186,439.372 31.5,439.5C 31.1707,433.463 31.5041,427.463 32.5,421.5C 37.9358,418.366 43.4358,415.366 49,412.5C 54.6667,414.833 60.3333,417.167 66,419.5C 69.9552,418.768 73.6219,417.435 77,415.5C 77.8256,412.207 78.3256,408.874 78.5,405.5C 87.1922,405.169 95.8589,405.502 104.5,406.5C 105.551,409.757 106.218,413.09 106.5,416.5C 110.864,416.906 115.197,417.572 119.5,418.5C 125.049,416.045 130.716,414.212 136.5,413C 141.667,416.167 146.833,419.333 152,422.5C 152.499,428.157 152.666,433.824 152.5,439.5C 156.881,439.372 161.215,439.705 165.5,440.5C 165.826,449.349 165.493,458.016 164.5,466.5 Z M 119.5,453.5 C 119.611,454.117 119.944,454.617 120.5,455C 112.45,462.241 102.95,465.741 92,465.5C 85.6136,465.489 79.4469,464.323 73.5,462C 69.5613,460.209 66.228,457.709 63.5,454.5C 75.6829,445.096 89.3495,442.263 104.5,446C 110.085,447.459 115.085,449.959 119.5,453.5 Z"/></g>
<g><path style="opacity:1" fill="#5e6174" d="M 332.5,405.5 C 336.5,405.5 340.5,405.5 344.5,405.5C 345.16,410.347 343.493,414.181 339.5,417C 332.213,421.425 324.546,422.925 316.5,421.5C 316.5,419.5 316.5,417.5 316.5,415.5C 319.713,415.81 322.713,415.477 325.5,414.5C 331.412,413.952 333.745,410.952 332.5,405.5 Z"/></g>
<g><path style="opacity:1" fill="#f76583" d="M 282.5,446.5 C 283.219,444.236 283.552,441.903 283.5,439.5C 292.807,435.15 292.807,430.65 283.5,426C 276.924,424.38 271.257,425.88 266.5,430.5C 262.833,430.5 259.167,430.5 255.5,430.5C 255.744,427.737 257.077,425.571 259.5,424C 272.151,416.725 284.818,416.725 297.5,424C 305.152,432.686 303.486,439.353 292.5,444C 289.176,444.943 285.843,445.776 282.5,446.5 Z"/></g>
<g><path style="opacity:1" fill="#576cfb" d="M 32.5,424.5 C 37.2412,426.742 41.2412,429.909 44.5,434C 43.9706,435.559 43.304,437.059 42.5,438.5C 39.2317,439.487 35.8984,439.82 32.5,439.5C 32.5,434.5 32.5,429.5 32.5,424.5 Z"/></g>
<g><path style="opacity:1" fill="#576cfa" d="M 149.5,424.5 C 151.442,429.056 152.108,434.056 151.5,439.5C 149.396,439.799 147.396,439.466 145.5,438.5C 144.408,435.906 142.741,433.739 140.5,432C 143.69,429.636 146.69,427.136 149.5,424.5 Z"/></g>
<g><path style="opacity:1" fill="#e3e4f0" d="M 283.5,439.5 C 278.223,440.069 273.223,439.235 268.5,437C 266.771,435.211 266.104,433.044 266.5,430.5C 271.257,425.88 276.924,424.38 283.5,426C 292.807,430.65 292.807,435.15 283.5,439.5 Z"/></g>
<g><path style="opacity:1" fill="#4a65ef" d="M 119.5,453.5 C 115.085,449.959 110.085,447.459 104.5,446C 89.3495,442.263 75.6829,445.096 63.5,454.5C 59.3565,448.647 60.0232,443.147 65.5,438C 82.5937,427.104 99.927,426.77 117.5,437C 122.492,441.141 124.159,446.308 122.5,452.5C 121.675,453.386 120.675,453.719 119.5,453.5 Z"/></g>
<g><path style="opacity:1" fill="#507a93" d="M 255.5,430.5 C 259.167,430.5 262.833,430.5 266.5,430.5C 266.104,433.044 266.771,435.211 268.5,437C 273.223,439.235 278.223,440.069 283.5,439.5C 283.552,441.903 283.219,444.236 282.5,446.5C 272.051,448.019 263.218,445.019 256,437.5C 254.608,435.059 254.441,432.726 255.5,430.5 Z"/></g>
<g><path style="opacity:1" fill="#596dfa" d="M 34.5,467.5 C 29.4376,467.726 24.4376,467.392 19.5,466.5C 19.5,462.833 19.5,459.167 19.5,455.5C 27.1637,455.889 34.8304,456.222 42.5,456.5C 42.8174,459.572 42.4841,462.572 41.5,465.5C 39.4902,467.171 37.1569,467.838 34.5,467.5 Z"/></g>
<g><path style="opacity:1" fill="#5a6efa" d="M 164.5,466.5 C 159.695,467.487 154.695,467.821 149.5,467.5C 148.167,467.5 146.833,467.5 145.5,467.5C 145.5,463.833 145.5,460.167 145.5,456.5C 151.822,455.986 158.155,455.653 164.5,455.5C 164.5,459.167 164.5,462.833 164.5,466.5 Z"/></g>
<g><path style="opacity:1" fill="#4c66ef" d="M 47.5,493.5 C 42.2329,490.89 37.2329,487.89 32.5,484.5C 32.3347,480.818 32.5014,477.152 33,473.5C 38,476.5 43,479.5 48,482.5C 48.8099,486.358 48.6433,490.024 47.5,493.5 Z"/></g>
<g><path style="opacity:1" fill="#586df8" d="M 76.5,487.5 C 73.1589,486.995 69.8255,486.828 66.5,487C 61.5995,489.464 56.5995,491.631 51.5,493.5C 50.2132,492.129 49.5465,490.295 49.5,488C 49.8333,486.167 50.1667,484.333 50.5,482.5C 56.7232,479.555 63.0565,476.888 69.5,474.5C 71.7649,474.94 73.9316,475.606 76,476.5C 76.4986,480.152 76.6653,483.818 76.5,487.5 Z"/></g>
<g><path style="opacity:1" fill="#4c66ef" d="M 150.5,485.5 C 146.167,488.669 141.5,491.336 136.5,493.5C 135.357,490.024 135.19,486.358 136,482.5C 141,479.5 146,476.5 151,473.5C 151.762,477.587 151.596,481.587 150.5,485.5 Z"/></g>
<g><path style="opacity:1" fill="#586df7" d="M 133.5,493.5 C 127.833,491.584 122.333,489.25 117,486.5C 115.301,487.406 113.467,487.739 111.5,487.5C 110.167,487.5 108.833,487.5 107.5,487.5C 107.5,483.833 107.5,480.167 107.5,476.5C 111.507,475.996 115.507,475.83 119.5,476C 124.287,477.893 128.953,480.06 133.5,482.5C 134.808,486.315 134.808,489.981 133.5,493.5 Z"/></g>
<g><path style="opacity:1" fill="#4763ef" d="M 107.5,491.5 C 106.952,493.626 106.285,495.626 105.5,497.5C 104.566,498.568 104.232,499.901 104.5,501.5C 98.1667,501.5 91.8333,501.5 85.5,501.5C 83.8333,501.5 82.1667,501.5 80.5,501.5C 80.5,497.833 80.5,494.167 80.5,490.5C 88.5069,490.666 96.5069,490.5 104.5,490C 105.249,488.266 105.749,486.433 106,484.5C 106.186,487.036 106.686,489.369 107.5,491.5 Z"/></g>
<g><path style="opacity:0.129" fill="#a2acf2" d="M 105.5,497.5 C 105.5,499.167 105.5,500.833 105.5,502.5C 98.6457,502.824 91.979,502.491 85.5,501.5C 91.8333,501.5 98.1667,501.5 104.5,501.5C 104.232,499.901 104.566,498.568 105.5,497.5 Z"/></g>
</svg>
