<?xml version="1.0" encoding="UTF-8"?>
<!DOCTYPE svg PUBLIC "-//W3C//DTD SVG 1.1//EN" "http://www.w3.org/Graphics/SVG/1.1/DTD/svg11.dtd">
<svg xmlns="http://www.w3.org/2000/svg" version="1.1" width="512px" height="512px" style="shape-rendering:geometricPrecision; text-rendering:geometricPrecision; image-rendering:optimizeQuality; fill-rule:evenodd; clip-rule:evenodd" xmlns:xlink="http://www.w3.org/1999/xlink">
<g><path style="opacity:0.965" fill="#ee6621" d="M 348.5,24.5 C 348.828,36.3453 348.495,48.012 347.5,59.5C 345.248,59.0844 343.748,57.751 343,55.5C 341.871,47.5547 340.371,39.7213 338.5,32C 327.872,33.3811 317.205,34.8811 306.5,36.5C 307.167,32.5 307.833,28.5 308.5,24.5C 320.014,21.6915 331.681,20.1915 343.5,20C 345.66,20.9959 347.327,22.4959 348.5,24.5 Z"/></g>
<g><path style="opacity:0.959" fill="#ef6c20" d="M 308.5,24.5 C 307.833,28.5 307.167,32.5 306.5,36.5C 305.527,36.9867 304.527,37.4867 303.5,38C 305.916,46.9986 307.083,56.1653 307,65.5C 294.755,71.3681 283.255,78.3681 272.5,86.5C 272.5,81.5 272.5,76.5 272.5,71.5C 279.445,66.018 287.112,61.518 295.5,58C 293.957,51.0816 292.624,44.0816 291.5,37C 291.739,31.5068 294.406,27.8402 299.5,26C 302.432,25.0467 305.432,24.5467 308.5,24.5 Z"/></g>
<g><path style="opacity:0.951" fill="#ec5323" d="M 417.5,38.5 C 428.965,45.6487 439.798,53.6487 450,62.5C 451.318,65.406 451.652,68.406 451,71.5C 447.201,78.2711 443.035,84.7711 438.5,91C 444.128,98.4214 449.128,106.255 453.5,114.5C 452.799,121.067 452.132,127.733 451.5,134.5C 450.206,133.71 449.039,132.71 448,131.5C 442.6,117.688 434.934,105.355 425,94.5C 424.245,91.6967 424.578,89.0301 426,86.5C 430.413,80.6744 434.58,74.6744 438.5,68.5C 430.944,62.5684 423.277,56.9017 415.5,51.5C 417.43,47.6273 418.097,43.294 417.5,38.5 Z"/></g>
<g><path style="opacity:0.967" fill="#ed5e22" d="M 348.5,24.5 C 349.927,26.1484 350.76,28.1484 351,30.5C 352.161,36.4637 352.994,42.4637 353.5,48.5C 365.64,49.1277 377.306,51.7944 388.5,56.5C 393.277,50.4615 397.943,44.2948 402.5,38C 407.769,34.5423 412.769,34.709 417.5,38.5C 418.097,43.294 417.43,47.6273 415.5,51.5C 413.787,49.805 411.787,48.9717 409.5,49C 404.885,55.9495 399.885,62.6162 394.5,69C 393.333,69.1667 392.167,69.3333 391,69.5C 376.833,64.17 362.333,60.8367 347.5,59.5C 348.495,48.012 348.828,36.3453 348.5,24.5 Z"/></g>
<g><path style="opacity:0.951" fill="#f0791e" d="M 239.5,64.5 C 238.551,69.7401 238.218,75.0735 238.5,80.5C 232.72,88.5505 227.053,96.7172 221.5,105C 228.952,110.117 236.118,115.617 243,121.5C 243.667,123.167 243.667,124.833 243,126.5C 236.995,140.19 233.661,154.523 233,169.5C 232.097,170.701 230.931,171.535 229.5,172C 221.107,173.412 212.774,175.079 204.5,177C 206.873,188.403 208.873,199.903 210.5,211.5C 218.645,210.115 226.812,208.781 235,207.5C 237.008,207.307 238.508,207.974 239.5,209.5C 238.508,216.982 238.175,224.648 238.5,232.5C 235.46,229.086 233.46,225.086 232.5,220.5C 225.146,221.281 217.813,222.281 210.5,223.5C 204.279,223.48 200.446,220.48 199,214.5C 196.898,201.822 194.731,189.155 192.5,176.5C 192.768,172.857 194.101,169.69 196.5,167C 204.88,164.354 213.38,162.187 222,160.5C 222.969,148.99 225.469,137.823 229.5,127C 224.213,121.923 218.38,117.423 212,113.5C 209.564,109.517 208.898,105.184 210,100.5C 217.553,88.5606 225.719,77.0606 234.5,66C 236.025,64.9914 237.692,64.4914 239.5,64.5 Z"/></g>
<g><path style="opacity:0.96" fill="#ef721f" d="M 272.5,71.5 C 272.5,76.5 272.5,81.5 272.5,86.5C 270.439,88.7107 267.939,90.3773 265,91.5C 257.009,87.0039 249.342,82.0039 242,76.5C 240.595,77.7305 239.429,79.0639 238.5,80.5C 238.218,75.0735 238.551,69.7401 239.5,64.5C 241.717,63.773 244.05,63.9397 246.5,65C 252.39,69.0667 258.39,72.9 264.5,76.5C 267.16,74.8431 269.827,73.1764 272.5,71.5 Z"/></g>
<g><path style="opacity:0.958" fill="#f3931b" d="M 93.5,77.5 C 93.8254,85.3516 93.492,93.0182 92.5,100.5C 91.6222,97.2389 90.9555,93.9055 90.5,90.5C 86.8121,90.7811 83.1454,91.2811 79.5,92C 79.5548,96.7833 79.2215,101.617 78.5,106.5C 71.4788,110.006 64.8122,114.006 58.5,118.5C 58.5,113.833 58.5,109.167 58.5,104.5C 60.513,102.503 62.8463,100.836 65.5,99.5C 66.1961,95.5296 66.3628,91.5296 66,87.5C 66.3459,85.1523 67.5125,83.3189 69.5,82C 77.402,79.9608 85.402,78.4608 93.5,77.5 Z"/></g>
<g><path style="opacity:0.95" fill="#f28d1c" d="M 93.5,77.5 C 95.8398,78.086 98.0065,79.086 100,80.5C 101.447,84.7702 102.947,88.9369 104.5,93C 108.566,93.5165 112.566,94.3498 116.5,95.5C 119.327,93.5044 121.661,91.0044 123.5,88C 125.025,86.9914 126.692,86.4914 128.5,86.5C 128.5,91.1667 128.5,95.8333 128.5,100.5C 127.196,104.97 124.362,107.97 120,109.5C 112.095,106.519 103.928,104.685 95.5,104C 93.9443,103.28 92.9443,102.113 92.5,100.5C 93.492,93.0182 93.8254,85.3516 93.5,77.5 Z"/></g>
<g><path style="opacity:0.955" fill="#ee6721" d="M 348.5,99.5 C 348.237,103.6 348.57,107.6 349.5,111.5C 334.505,110.503 320.838,114.169 308.5,122.5C 307.515,118.366 307.182,114.032 307.5,109.5C 319.942,101.64 333.609,98.3067 348.5,99.5 Z"/></g>
<g><path style="opacity:0.958" fill="#f3991a" d="M 58.5,104.5 C 58.5,109.167 58.5,113.833 58.5,118.5C 56.8805,120.238 54.8805,120.738 52.5,120C 49.9708,117.971 47.3041,116.138 44.5,114.5C 41.4531,116.918 39.1198,119.918 37.5,123.5C 40.1631,125.992 42.9964,128.326 46,130.5C 46.1667,131.667 46.3333,132.833 46.5,134C 43.9582,142.336 42.1248,150.836 41,159.5C 36.8919,161.942 32.3919,163.275 27.5,163.5C 28.1667,167.5 28.8333,171.5 29.5,175.5C 32.4825,175.102 35.4825,174.768 38.5,174.5C 41.0114,174.288 43.1781,174.955 45,176.5C 47.7376,183.644 51.7376,189.978 57,195.5C 57.6667,197.5 57.6667,199.5 57,201.5C 55.2912,204.418 53.4579,207.252 51.5,210C 54.3553,212.031 57.022,214.197 59.5,216.5C 58.5151,220.634 58.1818,224.968 58.5,229.5C 51.6177,225.465 45.1177,220.799 39,215.5C 38.5,214 38,212.5 37.5,211C 38.585,206.662 40.585,202.829 43.5,199.5C 40.8333,195.167 38.1667,190.833 35.5,186.5C 29.1302,189.982 23.6302,188.982 19,183.5C 16.577,174.636 15.577,165.636 16,156.5C 19.2609,152.742 23.4276,150.908 28.5,151C 29.5784,150.326 30.2451,149.326 30.5,148C 31.1944,144.22 32.1944,140.553 33.5,137C 30.6884,135.023 28.0217,132.856 25.5,130.5C 22.8522,126.147 23.0188,121.813 26,117.5C 29.8333,112.333 33.6667,107.167 37.5,102C 41.1667,100 44.8333,100 48.5,102C 50.6414,103.308 52.6414,104.808 54.5,106.5C 55.6223,105.37 56.9557,104.703 58.5,104.5 Z"/></g>
<g><path style="opacity:0.955" fill="#ef6d20" d="M 307.5,109.5 C 307.182,114.032 307.515,118.366 308.5,122.5C 281.25,147.6 277.416,175.933 297,207.5C 300.704,211.036 304.204,214.702 307.5,218.5C 307.5,223.167 307.5,227.833 307.5,232.5C 285.14,218.299 273.473,197.799 272.5,171C 272.743,148.917 281.077,130.584 297.5,116C 300.691,113.574 304.025,111.407 307.5,109.5 Z"/></g>
<g><path style="opacity:0.952" fill="#ed5c22" d="M 348.5,99.5 C 390.166,104.835 412.832,128.501 416.5,170.5C 414.305,205.079 396.972,228.246 364.5,240C 358.924,241.485 353.257,242.318 347.5,242.5C 348.423,238.936 348.756,235.269 348.5,231.5C 347.209,231.737 346.209,231.404 345.5,230.5C 371.509,228.979 389.676,216.312 400,192.5C 410.22,155.441 397.72,129.274 362.5,114C 358.246,112.686 353.913,111.853 349.5,111.5C 348.57,107.6 348.237,103.6 348.5,99.5 Z"/></g>
<g><path style="opacity:0.952" fill="#eb4f24" d="M 453.5,114.5 C 454.399,117.664 456.233,119.997 459,121.5C 466.734,119.484 474.567,118.651 482.5,119C 486.49,120.99 488.99,124.157 490,128.5C 492.982,142.381 494.649,156.381 495,170.5C 493.878,172.624 492.378,174.457 490.5,176C 482.598,178.039 474.598,179.539 466.5,180.5C 465.961,192.196 463.627,203.529 459.5,214.5C 459.608,215.442 459.941,216.275 460.5,217C 466.904,220.735 472.737,225.235 478,230.5C 480.147,235.327 479.814,239.994 477,244.5C 470.667,253.5 464.333,262.5 458,271.5C 454.178,277.041 449.011,278.874 442.5,277C 436.247,272.957 430.08,268.79 424,264.5C 422.568,266.439 420.735,267.772 418.5,268.5C 417.514,264.03 417.181,259.363 417.5,254.5C 419.317,251.425 421.984,250.259 425.5,251C 432.926,255.462 440.092,260.295 447,265.5C 453.711,255.912 460.544,246.412 467.5,237C 460.024,231.852 452.858,226.352 446,220.5C 445.333,218.5 445.333,216.5 446,214.5C 451.532,201.037 454.866,187.037 456,172.5C 456.5,171.333 457.333,170.5 458.5,170C 466.807,168.282 475.141,166.782 483.5,165.5C 481.725,153.848 480.058,142.182 478.5,130.5C 469.517,131.942 460.517,133.275 451.5,134.5C 452.132,127.733 452.799,121.067 453.5,114.5 Z"/></g>
<g><path style="opacity:0.96" fill="#f3931b" d="M 93.5,118.5 C 93.2367,122.6 93.5701,126.6 94.5,130.5C 78.0616,132.606 69.0616,141.939 67.5,158.5C 69.2033,173.198 77.2033,182.198 91.5,185.5C 93.3177,189.173 93.9843,193.173 93.5,197.5C 76.1824,196.352 64.3491,187.686 58,171.5C 52.2101,148.25 60.0434,131.416 81.5,121C 85.414,119.717 89.414,118.884 93.5,118.5 Z"/></g>
<g><path style="opacity:0.951" fill="#f28c1c" d="M 93.5,118.5 C 118.649,119.816 132.649,132.983 135.5,158C 133.235,183.767 119.235,196.934 93.5,197.5C 93.9843,193.173 93.3177,189.173 91.5,185.5C 110.19,185.993 120.857,176.827 123.5,158C 121.446,140.779 111.78,131.613 94.5,130.5C 93.5701,126.6 93.2367,122.6 93.5,118.5 Z"/></g>
<g><path style="opacity:0.949" fill="#f1851c" d="M 128.5,86.5 C 130.989,86.2978 133.323,86.7978 135.5,88C 141.09,92.0452 146.59,96.2119 152,100.5C 153.422,103.03 153.755,105.697 153,108.5C 151.365,111.632 149.532,114.632 147.5,117.5C 150.228,120.899 152.561,124.566 154.5,128.5C 158.764,128.769 163.097,128.936 167.5,129C 169.286,129.785 170.786,130.951 172,132.5C 173.929,140.075 175.429,147.742 176.5,155.5C 176.352,158.63 175.018,161.13 172.5,163C 168.652,164.168 164.818,165.335 161,166.5C 160.531,171.209 159.365,175.709 157.5,180C 161.241,181.738 164.408,184.238 167,187.5C 167.667,190.5 167.667,193.5 167,196.5C 162.748,203.198 157.914,209.365 152.5,215C 149.5,215.667 146.5,215.667 143.5,215C 141.323,213.485 139.156,211.985 137,210.5C 134.029,211.979 131.196,213.645 128.5,215.5C 128.5,210.833 128.5,206.167 128.5,201.5C 130.997,197.254 134.664,195.754 139.5,197C 142,198.833 144.5,200.667 147,202.5C 149.62,199.424 152.12,196.258 154.5,193C 151.667,190.833 148.833,188.667 146,186.5C 145.125,185.127 144.625,183.627 144.5,182C 147.479,174.106 149.312,165.939 150,157.5C 154.009,154.726 158.509,153.393 163.5,153.5C 163.311,149.029 162.477,144.696 161,140.5C 157.928,141.43 154.761,142.097 151.5,142.5C 149.088,142.594 147.255,141.594 146,139.5C 142.084,131.999 137.917,124.666 133.5,117.5C 135.229,113.71 137.229,110.044 139.5,106.5C 137.003,104.174 134.336,102.007 131.5,100C 130.423,99.5304 129.423,99.6971 128.5,100.5C 128.5,95.8333 128.5,91.1667 128.5,86.5 Z"/></g>
<g><path style="opacity:0.945" fill="#f28c1b" d="M 128.5,201.5 C 128.5,206.167 128.5,210.833 128.5,215.5C 127.279,216.028 126.113,216.695 125,217.5C 125.245,221.813 125.245,226.147 125,230.5C 124.535,231.931 123.701,233.097 122.5,234C 115.023,236.358 107.356,237.858 99.5,238.5C 96.7954,238.684 94.4621,238.017 92.5,236.5C 93.1667,228.5 93.8333,220.5 94.5,212.5C 96.371,212.859 97.871,213.859 99,215.5C 99.7189,219.145 100.219,222.812 100.5,226.5C 104.5,225.833 108.5,225.167 112.5,224.5C 112.441,221.31 112.107,218.143 111.5,215C 111.542,213.033 112.042,211.199 113,209.5C 118.424,207.205 123.591,204.539 128.5,201.5 Z"/></g>
<g><path style="opacity:0.961" fill="#f3921b" d="M 94.5,212.5 C 93.8333,220.5 93.1667,228.5 92.5,236.5C 91.2101,235.942 90.3768,234.942 90,233.5C 89.1744,230.207 88.6744,226.874 88.5,223.5C 83.6692,223.267 79.0026,222.267 74.5,220.5C 72.0077,223.163 69.6744,225.996 67.5,229C 64.4397,230.663 61.4397,230.83 58.5,229.5C 58.1818,224.968 58.5151,220.634 59.5,216.5C 60.1174,216.611 60.6174,216.944 61,217.5C 63.1386,214.061 65.6386,210.894 68.5,208C 69.6667,207.833 70.8333,207.667 72,207.5C 79.3771,209.719 86.8771,211.386 94.5,212.5 Z"/></g>
<g><path style="opacity:0.963" fill="#f0731f" d="M 239.5,209.5 C 245.885,223.259 254.052,235.925 264,247.5C 264.667,249.5 264.667,251.5 264,253.5C 259.667,259.5 255.333,265.5 251,271.5C 250.333,272.5 250.333,273.5 251,274.5C 258.108,279.633 265.275,284.633 272.5,289.5C 272.5,294.5 272.5,299.5 272.5,304.5C 262.196,297.343 251.862,290.176 241.5,283C 237.872,279.169 236.705,274.669 238,269.5C 242.167,263.167 246.333,256.833 250.5,250.5C 245.487,245.131 241.487,239.131 238.5,232.5C 238.175,224.648 238.508,216.982 239.5,209.5 Z"/></g>
<g><path style="opacity:0.955" fill="#ee6621" d="M 307.5,218.5 C 318.778,226.703 331.445,230.703 345.5,230.5C 346.209,231.404 347.209,231.737 348.5,231.5C 348.756,235.269 348.423,238.936 347.5,242.5C 333.081,243.229 319.748,239.895 307.5,232.5C 307.5,227.833 307.5,223.167 307.5,218.5 Z"/></g>
<g><path style="opacity:0.951" fill="#ed5c22" d="M 417.5,254.5 C 417.181,259.363 417.514,264.03 418.5,268.5C 411.116,274.617 402.949,279.617 394,283.5C 394.929,290.09 395.762,296.757 396.5,303.5C 397.156,308.354 395.489,312.187 391.5,315C 376.974,318.339 362.307,320.839 347.5,322.5C 348.123,317.065 348.79,311.732 349.5,306.5C 349.5,307.833 349.5,309.167 349.5,310.5C 360.874,308.716 372.207,306.716 383.5,304.5C 383.556,296.307 382.556,288.14 380.5,280C 381,278.5 381.5,277 382,275.5C 395.066,270.391 406.899,263.391 417.5,254.5 Z"/></g>
<g><path style="opacity:0.957" fill="#ef6d1f" d="M 307.5,275.5 C 307.231,279.931 307.564,284.265 308.5,288.5C 305.702,287.9 303.035,286.9 300.5,285.5C 295.391,291.536 290.391,297.702 285.5,304C 281.255,307.152 276.922,307.319 272.5,304.5C 272.5,299.5 272.5,294.5 272.5,289.5C 274.21,291.2 276.21,292.533 278.5,293.5C 283.622,286.755 288.622,279.922 293.5,273C 294.872,272.598 296.205,272.098 297.5,271.5C 300.859,272.849 304.192,274.182 307.5,275.5 Z"/></g>
<g><path style="opacity:0.944" fill="#f28d1c" d="M 127.5,273.5 C 128.809,280.266 128.809,286.932 127.5,293.5C 126.735,290.904 126.401,288.237 126.5,285.5C 119.478,286.726 112.478,288.059 105.5,289.5C 105.167,289.833 104.833,290.167 104.5,290.5C 105.991,296.107 106.824,301.774 107,307.5C 106.626,308.416 106.126,309.25 105.5,310C 101.399,311.749 97.3988,313.583 93.5,315.5C 93.7693,311.069 93.436,306.735 92.5,302.5C 93.4778,302.189 94.1445,301.522 94.5,300.5C 92.8108,294.941 92.3108,289.274 93,283.5C 93.7845,281.714 94.9512,280.214 96.5,279C 106.72,276.519 117.053,274.686 127.5,273.5 Z"/></g>
<g><path style="opacity:0.953" fill="#f1871c" d="M 127.5,273.5 C 131.025,273.346 133.859,274.679 136,277.5C 137.81,283.024 138.977,288.691 139.5,294.5C 147.496,294.766 155.163,296.432 162.5,299.5C 162.231,303.931 162.564,308.265 163.5,312.5C 153.211,308.541 142.544,306.041 131.5,305C 128.739,301.75 127.406,297.917 127.5,293.5C 128.809,286.932 128.809,280.266 127.5,273.5 Z"/></g>
<g><path style="opacity:0.959" fill="#ee6621" d="M 307.5,275.5 C 319.272,279.157 331.272,281.657 343.5,283C 344,283.5 344.5,284 345,284.5C 346.613,291.854 348.113,299.187 349.5,306.5C 348.79,311.732 348.123,317.065 347.5,322.5C 343.987,321.49 341.153,319.49 339,316.5C 337.392,309.183 335.892,301.85 334.5,294.5C 325.809,292.628 317.142,290.628 308.5,288.5C 307.564,284.265 307.231,279.931 307.5,275.5 Z"/></g>
<g><path style="opacity:0.95" fill="#f17f1d" d="M 203.5,331.5 C 203.825,338.687 203.491,345.687 202.5,352.5C 198.347,344.209 193.181,336.542 187,329.5C 186.333,327.167 186.333,324.833 187,322.5C 190.493,318.482 193.16,314.148 195,309.5C 189.758,305.461 184.258,301.795 178.5,298.5C 174.964,303.052 171.297,307.552 167.5,312C 166.207,312.49 164.873,312.657 163.5,312.5C 162.564,308.265 162.231,303.931 162.5,299.5C 165.123,295.098 168.123,290.931 171.5,287C 175.833,283.667 180.167,283.667 184.5,287C 191.5,292 198.5,297 205.5,302C 208.36,305.681 209.193,309.848 208,314.5C 205.533,318.6 202.699,322.434 199.5,326C 201.464,327.451 202.797,329.284 203.5,331.5 Z"/></g>
<g><path style="opacity:0.964" fill="#f3961b" d="M 92.5,302.5 C 93.436,306.735 93.7693,311.069 93.5,315.5C 88.1156,318.703 83.1156,322.537 78.5,327C 76.1667,327.667 73.8333,327.667 71.5,327C 67.6756,323.921 63.6756,321.088 59.5,318.5C 55.0067,323.832 50.6734,329.332 46.5,335C 49.8866,338.053 53.5533,340.72 57.5,343C 59.6766,344.497 61.01,346.497 61.5,349C 57.346,359.784 54.846,370.95 54,382.5C 50.6262,385.014 46.7928,386.348 42.5,386.5C 42.5,382.5 42.5,378.5 42.5,374.5C 43.6492,367.093 45.3159,359.76 47.5,352.5C 43.5325,348.705 39.3659,345.038 35,341.5C 33,337.833 33,334.167 35,330.5C 40.5591,321.885 46.7258,313.718 53.5,306C 56.8333,305.333 60.1667,305.333 63.5,306C 67.1667,308.5 70.8333,311 74.5,313.5C 80.1942,309.32 86.1942,305.654 92.5,302.5 Z"/></g>
<g><path style="opacity:0.945" fill="#f28b1c" d="M 162.5,340.5 C 162.821,345.695 162.487,350.695 161.5,355.5C 140.735,336.706 120.235,337.039 100,356.5C 98.1555,359.528 96.3222,362.528 94.5,365.5C 93.8333,359.5 93.1667,353.5 92.5,347.5C 108.394,330.943 127.394,326.109 149.5,333C 154.499,334.533 158.833,337.033 162.5,340.5 Z"/></g>
<g><path style="opacity:0.958" fill="#f0791e" d="M 203.5,331.5 C 206.893,335.267 209.56,339.6 211.5,344.5C 212.333,344.833 213.167,345.167 214,345.5C 219.114,344.174 224.28,343.674 229.5,344C 232.756,345.587 234.923,348.087 236,351.5C 238.104,361.778 239.437,372.111 240,382.5C 238.833,385 237,386.833 234.5,388C 229.565,389.267 224.565,390.1 219.5,390.5C 219.013,398.28 217.346,405.78 214.5,413C 219.319,416.488 223.819,420.321 228,424.5C 228.667,427.5 228.667,430.5 228,433.5C 222.204,442.617 215.704,451.117 208.5,459C 207.207,459.49 205.873,459.657 204.5,459.5C 203.78,455.27 203.113,450.937 202.5,446.5C 203.496,446.586 204.329,446.252 205,445.5C 208.303,440.031 211.803,434.698 215.5,429.5C 211.639,426.472 207.639,423.639 203.5,421C 202.02,419.701 201.354,418.034 201.5,416C 205.029,405.054 207.529,393.887 209,382.5C 209.903,381.299 211.069,380.465 212.5,380C 217.833,379 223.167,378 228.5,377C 227.058,369.854 225.558,362.687 224,355.5C 217.962,357.256 211.795,358.09 205.5,358C 203.393,356.736 202.393,354.903 202.5,352.5C 203.491,345.687 203.825,338.687 203.5,331.5 Z"/></g>
<g><path style="opacity:0.957" fill="#ed5922" d="M 382.5,423.5 C 382.822,417.642 382.489,411.975 381.5,406.5C 393.983,391.868 402.483,375.202 407,356.5C 403.588,359.123 400.088,361.623 396.5,364C 391.287,365.806 387.953,364.139 386.5,359C 387.104,356.532 388.438,354.532 390.5,353C 398.107,348.391 405.441,343.391 412.5,338C 414.833,337.333 417.167,337.333 419.5,338C 424.699,344.232 429.532,350.732 434,357.5C 436.03,360.226 437.53,363.226 438.5,366.5C 436.171,373.041 432.338,374.041 427,369.5C 424.752,366.672 422.752,363.672 421,360.5C 420.333,359.167 419.667,359.167 419,360.5C 412.448,384.962 400.281,405.962 382.5,423.5 Z"/></g>
<g><path style="opacity:0.944" fill="#f1831d" d="M 162.5,340.5 C 179.396,353.66 186.229,370.993 183,392.5C 176.075,419.31 158.742,433.643 131,435.5C 129.615,435.486 128.449,435.152 127.5,434.5C 128.482,431.038 128.815,427.371 128.5,423.5C 150.737,422.751 164.904,411.751 171,390.5C 173.275,377.261 170.109,365.594 161.5,355.5C 162.487,350.695 162.821,345.695 162.5,340.5 Z"/></g>
<g><path style="opacity:0.962" fill="#f28f1b" d="M 92.5,347.5 C 93.1667,353.5 93.8333,359.5 94.5,365.5C 86.6336,387.4 92.3002,404.9 111.5,418C 116.912,420.749 122.578,422.582 128.5,423.5C 128.815,427.371 128.482,431.038 127.5,434.5C 105.897,432.442 90.7299,421.442 82,401.5C 76.286,384.735 77.9527,368.735 87,353.5C 88.331,351.004 90.1644,349.004 92.5,347.5 Z"/></g>
<g><path style="opacity:0.953" fill="#f49a1a" d="M 42.5,374.5 C 42.5,378.5 42.5,382.5 42.5,386.5C 39.8728,387.092 37.2062,387.425 34.5,387.5C 35.4017,394.91 36.7351,402.244 38.5,409.5C 40.0709,408.691 41.7376,408.357 43.5,408.5C 42.5701,412.4 42.2367,416.4 42.5,420.5C 36.9701,422.542 32.1367,421.542 28,417.5C 24.3863,405.766 22.7196,393.766 23,381.5C 24.1667,379.667 25.6667,378.167 27.5,377C 32.4569,375.842 37.4569,375.008 42.5,374.5 Z"/></g>
<g><path style="opacity:0.965" fill="#f3941b" d="M 92.5,455.5 C 93.2049,461.399 93.8716,467.399 94.5,473.5C 91.1181,479.573 86.1181,481.407 79.5,479C 70.8851,473.441 62.7185,467.274 55,460.5C 53.7496,457.923 53.4163,455.257 54,452.5C 56.3358,447.825 59.1691,443.492 62.5,439.5C 58.1238,433.251 54.1238,426.751 50.5,420C 47.8428,419.825 45.1761,419.992 42.5,420.5C 42.2367,416.4 42.5701,412.4 43.5,408.5C 48.5244,406.764 53.5244,406.597 58.5,408C 62.385,417.875 67.885,426.709 75,434.5C 76.373,436.695 76.7063,439.029 76,441.5C 73.1517,445.677 70.3183,449.844 67.5,454C 67.7591,455.261 68.4258,456.261 69.5,457C 74.4218,460.378 79.2551,463.878 84,467.5C 86.6641,463.343 89.4975,459.343 92.5,455.5 Z"/></g>
<g><path style="opacity:0.964" fill="#ed6021" d="M 381.5,406.5 C 382.489,411.975 382.822,417.642 382.5,423.5C 372.315,433.346 360.981,441.679 348.5,448.5C 348.818,443.968 348.485,439.634 347.5,435.5C 360.321,427.73 371.654,418.063 381.5,406.5 Z"/></g>
<g><path style="opacity:0.967" fill="#ef6d1f" d="M 306.5,450.5 C 307.482,453.962 307.815,457.629 307.5,461.5C 299.391,463.068 291.058,463.902 282.5,464C 285.704,466.869 288.537,470.035 291,473.5C 292.244,481.59 289.077,484.09 281.5,481C 274.667,474.167 267.833,467.333 261,460.5C 260.21,457.366 260.543,454.366 262,451.5C 268.167,445.333 274.333,439.167 280.5,433C 288.609,428.974 292.109,431.474 291,440.5C 287.5,444 284,447.5 280.5,451C 289.183,451.587 297.849,451.42 306.5,450.5 Z"/></g>
<g><path style="opacity:0.958" fill="#ee6721" d="M 347.5,435.5 C 348.485,439.634 348.818,443.968 348.5,448.5C 335.671,455.411 322.004,459.745 307.5,461.5C 307.815,457.629 307.482,453.962 306.5,450.5C 320.733,447.309 334.399,442.309 347.5,435.5 Z"/></g>
<g><path style="opacity:0.956" fill="#f1811d" d="M 202.5,446.5 C 203.113,450.937 203.78,455.27 204.5,459.5C 204.44,460.043 204.107,460.376 203.5,460.5C 197.94,458.138 192.773,455.138 188,451.5C 182.215,455.78 176.048,459.447 169.5,462.5C 169.167,463.5 168.833,464.5 168.5,465.5C 169.663,470.467 170.163,475.467 170,480.5C 168.901,483.733 166.735,485.733 163.5,486.5C 162.833,475.5 162.167,464.5 161.5,453.5C 169.791,449.347 177.458,444.181 184.5,438C 186.5,437.333 188.5,437.333 190.5,438C 194.657,440.664 198.657,443.497 202.5,446.5 Z"/></g>
<g><path style="opacity:0.941" fill="#f28c1c" d="M 128.5,459.5 C 128.193,469.582 128.526,479.582 129.5,489.5C 127.926,489.063 126.759,488.063 126,486.5C 124.776,481.313 123.61,476.146 122.5,471C 115.358,470.143 108.358,468.643 101.5,466.5C 100.833,466.667 100.167,466.833 99.5,467C 97.9343,469.326 96.2676,471.492 94.5,473.5C 93.8716,467.399 93.2049,461.399 92.5,455.5C 93.8984,453.467 95.8984,452.467 98.5,452.5C 108.134,456.36 118.134,458.694 128.5,459.5 Z"/></g>
<g><path style="opacity:0.948" fill="#f1861c" d="M 161.5,453.5 C 162.167,464.5 162.833,475.5 163.5,486.5C 154.573,488.74 145.407,490.406 136,491.5C 133.456,491.664 131.29,490.997 129.5,489.5C 128.526,479.582 128.193,469.582 128.5,459.5C 130.39,459.297 131.89,459.963 133,461.5C 134.183,467.614 135.683,473.614 137.5,479.5C 144.037,478.217 150.537,476.884 157,475.5C 156.407,469.193 156.074,462.86 156,456.5C 157.488,454.84 159.321,453.84 161.5,453.5 Z"/></g>
</svg>
