<?xml version="1.0" encoding="UTF-8"?>
<!DOCTYPE svg PUBLIC "-//W3C//DTD SVG 1.1//EN" "http://www.w3.org/Graphics/SVG/1.1/DTD/svg11.dtd">
<svg xmlns="http://www.w3.org/2000/svg" version="1.1" width="128px" height="128px" style="shape-rendering:geometricPrecision; text-rendering:geometricPrecision; image-rendering:optimizeQuality; fill-rule:evenodd; clip-rule:evenodd" xmlns:xlink="http://www.w3.org/1999/xlink">
<g><path style="opacity:1" fill="#6d79e8" d="M 30.5,-0.5 C 32.5,-0.5 34.5,-0.5 36.5,-0.5C 45.3957,8.57449 52.5623,18.9078 58,30.5C 61.5813,41.3691 59.4146,50.8691 51.5,59C 45.3333,60.8333 43.1667,58.6667 45,52.5C 52.4085,45.7093 53.4085,38.0426 48,29.5C 45.1575,24.4812 41.8241,19.8145 38,15.5C 37.6667,33.8333 37.3333,52.1667 37,70.5C 35.8983,74.7244 33.3983,77.7244 29.5,79.5C 29.5,71.1667 29.5,62.8333 29.5,54.5C 29.1804,36.0902 29.5138,17.7569 30.5,-0.5 Z"/></g>
<g><path style="opacity:1" fill="#ff6197" d="M 127.5,23.5 C 127.5,47.5 127.5,71.5 127.5,95.5C 118.22,106.504 107.22,108.338 94.5,101C 86.1094,88.5068 89.1094,79.8402 103.5,75C 108.638,74.1804 113.638,74.6804 118.5,76.5C 119.498,67.1904 119.832,57.8571 119.5,48.5C 111.5,51.5 103.5,54.5 95.5,57.5C 95.5,49.5 95.5,41.5 95.5,33.5C 103.808,30.0151 112.141,26.5151 120.5,23C 122.929,22.2967 125.262,22.4634 127.5,23.5 Z"/></g>
<g><path style="opacity:0.969" fill="#ff8fb7" d="M 95.5,33.5 C 95.5,41.5 95.5,49.5 95.5,57.5C 89.3787,60.725 83.0454,63.725 76.5,66.5C 75.6671,83.1567 75.1671,99.8233 75,116.5C 72.5877,121.748 68.7544,125.414 63.5,127.5C 58.8333,127.5 54.1667,127.5 49.5,127.5C 36.7802,122.271 34.1136,113.771 41.5,102C 49.402,97.1016 57.7353,96.2683 66.5,99.5C 67.1667,81.5 67.8333,63.5 68.5,45.5C 77.4081,41.2109 86.4081,37.2109 95.5,33.5 Z"/></g>
<g><path style="opacity:0.962" fill="#979eef" d="M 29.5,54.5 C 29.5,62.8333 29.5,71.1667 29.5,79.5C 17.5673,85.0157 7.56733,82.6824 -0.5,72.5C -0.5,68.8333 -0.5,65.1667 -0.5,61.5C 7.56733,51.3176 17.5673,48.9843 29.5,54.5 Z"/></g>
</svg>
