<?xml version="1.0" encoding="UTF-8"?>
<!DOCTYPE svg PUBLIC "-//W3C//DTD SVG 1.1//EN" "http://www.w3.org/Graphics/SVG/1.1/DTD/svg11.dtd">
<svg xmlns="http://www.w3.org/2000/svg" version="1.1" width="512px" height="512px" style="shape-rendering:geometricPrecision; text-rendering:geometricPrecision; image-rendering:optimizeQuality; fill-rule:evenodd; clip-rule:evenodd" xmlns:xlink="http://www.w3.org/1999/xlink">
	<g>
		<path style="opacity:0.993" fill="#ffffff" d="M 239.5,-0.5 C 250.167,-0.5 260.833,-0.5 271.5,-0.5C 327.247,8.40899 365.247,39.2423 385.5,92C 388.534,101.301 390.7,110.801 392,120.5C 392.5,150.165 392.667,179.831 392.5,209.5C 401.506,209.334 410.506,209.5 419.5,210C 431.879,212.046 439.379,219.212 442,231.5C 442.667,317.833 442.667,404.167 442,490.5C 439.859,501.136 433.692,508.136 423.5,511.5C 311.5,511.5 199.5,511.5 87.5,511.5C 77.3079,508.136 71.1413,501.136 69,490.5C 68.3333,404.167 68.3333,317.833 69,231.5C 71.6207,219.212 79.1207,212.046 91.5,210C 100.494,209.5 109.494,209.334 118.5,209.5C 118.333,179.831 118.5,150.165 119,120.5C 127.438,66.7532 156.605,29.2532 206.5,8C 217.351,4.03822 228.351,1.20488 239.5,-0.5 Z M 246.5,50.5 C 290.334,49.5446 320.501,69.2112 337,109.5C 339.102,116.01 340.435,122.677 341,129.5C 341.5,156.165 341.667,182.831 341.5,209.5C 284.167,209.5 226.833,209.5 169.5,209.5C 169.333,182.498 169.5,155.498 170,128.5C 177.22,84.4475 202.72,58.4475 246.5,50.5 Z"/>
	</g>
</svg>
